<?xml version="1.0" encoding="UTF-8"?>
<svg version="1.1" xmlns="http://www.w3.org/2000/svg" width="378" height="268">
<path d="M0 0 C124.74 0 249.48 0 378 0 C378 88.44 378 176.88 378 268 C253.26 268 128.52 268 0 268 C0 179.56 0 91.12 0 0 Z " fill="#FEFEFE" transform="translate(0,0)"/>
<path d="M0 0 C0.48009262 2.06228466 0.95903544 4.12483701 1.4375 6.1875 C1.83775391 7.91033203 1.83775391 7.91033203 2.24609375 9.66796875 C2.49488281 10.76753906 2.74367188 11.86710937 3 13 C3.1959375 13.8559375 3.391875 14.711875 3.59375 15.59375 C4.03574873 18.21174246 4.09787364 20.65947687 4.0625 23.3125 C4.05347656 24.19550781 4.04445313 25.07851562 4.03515625 25.98828125 C4.01775391 26.98408203 4.01775391 26.98408203 4 28 C5.65 28.66 7.3 29.32 9 30 C9.75 33.125 9.75 33.125 10 37 C9.36964844 37.90621094 8.73929687 38.81242187 8.08984375 39.74609375 C5.69378404 43.47678112 5.17530023 46.62873767 4.8125 50.9375 C4.67370188 52.30083478 4.53438293 53.66411664 4.39453125 55.02734375 C4.19923828 56.99380859 4.19923828 56.99380859 4 59 C3.77699219 60.28003906 3.55398438 61.56007812 3.32421875 62.87890625 C3.21722656 63.90886719 3.11023438 64.93882813 3 66 C3.66 66.66 4.32 67.32 5 68 C4.91048027 71.9388682 4.31083756 73.64945882 1.67578125 76.62109375 C-1.60023684 80.42143951 -3.09800219 84.62690082 -4.75 89.3125 C-5.20439453 90.5180957 -5.20439453 90.5180957 -5.66796875 91.74804688 C-7.13940454 95.8124795 -8.15064428 99.502207 -8.48828125 103.8203125 C-8.8162136 107.68474533 -9.66946971 109.71390334 -12.4375 112.5625 C-13.05496094 113.22378906 -13.67242187 113.88507813 -14.30859375 114.56640625 C-16 116 -16 116 -18 116 C-18.26683594 116.56460938 -18.53367187 117.12921875 -18.80859375 117.7109375 C-23.18143122 126.1125203 -29.54372317 133.15928638 -36 140 C-36.60199219 140.66644531 -37.20398438 141.33289063 -37.82421875 142.01953125 C-51.83902779 156.94636691 -70.91159914 167.18569096 -90 174 C-91.07765625 174.39058594 -92.1553125 174.78117188 -93.265625 175.18359375 C-123.38902929 185.31129002 -159.90349278 182.07910226 -189 170 C-189.8971875 169.4534375 -190.794375 168.906875 -191.71875 168.34375 C-195.33671358 166.21262077 -199.14656196 166.11711977 -203.2578125 165.625 C-206.2122485 164.95162427 -207.32114972 164.500908 -209 162 C-209 160.68 -209 159.36 -209 158 C-209.7321875 157.73960937 -210.464375 157.47921875 -211.21875 157.2109375 C-214.06068812 155.9735768 -216.09420236 154.56488612 -218.5 152.625 C-219.28246094 152.00367188 -220.06492188 151.38234375 -220.87109375 150.7421875 C-222.4601824 149.44175899 -224.01951725 148.10481412 -225.5625 146.75 C-228.31602293 144.77311174 -230.91787097 143.81560851 -234.1328125 142.80859375 C-236.33088737 141.85670777 -237.51577177 140.8757731 -239 139 C-239.0825 137.948125 -239.165 136.89625 -239.25 135.8125 C-240.16912382 131.14028723 -242.01685003 129.31046242 -245.2109375 125.92578125 C-251 119.69432314 -251 119.69432314 -251 116 C-252.11375 115.814375 -252.11375 115.814375 -253.25 115.625 C-257.63667611 114.62802816 -259.46660641 113.80009038 -262 110 C-262.32914286 104.84342857 -262.32914286 104.84342857 -261.3125 102.23828125 C-260.82094867 98.71754484 -262.35005268 96.31018972 -263.8125 93.125 C-269.1382526 81.41087432 -269.1382526 81.41087432 -269 75 C-268.13648926 74.89977539 -267.27297852 74.79955078 -266.38330078 74.69628906 C-229.27667183 70.3631702 -193.2852374 64.34713077 -157.23828125 54.43359375 C-153.04101842 53.28056552 -148.83611279 52.16372254 -144.625 51.0625 C-128.69169559 46.81948745 -112.90439365 42.1191646 -97.30419922 36.78125 C-94.8025846 35.93306535 -92.2947954 35.10537926 -89.78515625 34.28125 C-80.44335935 31.20988164 -71.17089767 28.03128066 -61.98828125 24.51171875 C-59.22741938 23.45522803 -56.45486058 22.44278236 -53.66796875 21.45703125 C-39.0879574 16.27156681 -24.92028317 10.11845131 -10.91015625 3.55175781 C-9.92917969 3.09381836 -8.94820313 2.63587891 -7.9375 2.1640625 C-7.05964844 1.74850098 -6.18179687 1.33293945 -5.27734375 0.90478516 C-3 0 -3 0 0 0 Z " fill="#FCFDFB" transform="translate(317,55)"/>
<path d="M0 0 C0.33 0.99 0.66 1.98 1 3 C-35.04743994 22.06689347 -76.93467088 32.94318583 -116.15527344 43.24316406 C-119.49241624 44.13100672 -122.81516648 45.06399592 -126.13696289 46.00732422 C-140.35289893 50.04349504 -154.74036981 53.36125097 -169.203125 56.3828125 C-171.36377946 56.85960496 -173.50169119 57.44015087 -175.625 58.0625 C-179.69316796 59.19254665 -183.7646515 59.81601193 -187.9375 60.4375 C-191.047339 60.95388225 -191.047339 60.95388225 -194.19140625 61.9375 C-199.0606516 63.2958946 -203.95737409 64.15291393 -208.9375 65 C-209.95513428 65.17370117 -210.97276855 65.34740234 -212.02124023 65.52636719 C-225.08083224 67.72201817 -237.72008046 69.37349774 -251 69 C-249.81022899 65.43068696 -248.57869783 64.95787909 -245.34423828 63.29882812 C-244.67376465 62.97333984 -244.00329102 62.64785156 -243.3125 62.3125 C-242.60335449 61.96509766 -241.89420898 61.61769531 -241.16357422 61.25976562 C-226.32904822 54.19722054 -210.53561087 49.40314161 -194.83056641 44.70117188 C-190.38573112 43.36931343 -185.97230457 42.04043034 -181.63671875 40.3828125 C-178.33900099 39.12890048 -175.08852556 38.11505242 -171.6875 37.1875 C-165.9357446 35.58021075 -160.24852531 33.82527052 -154.5625 32 C-147.09521126 29.61579874 -139.61252949 27.47018157 -132.01757812 25.52392578 C-129.75237522 24.93569666 -127.49338981 24.32639776 -125.234375 23.71484375 C-117.81628765 21.71531215 -110.48125528 19.78259471 -102.8894043 18.55615234 C-99.58514624 17.92014898 -96.38814873 17.05571155 -93.14453125 16.16015625 C-85.29488466 14.02936918 -77.38749211 12.21807011 -69.4375 10.5 C-68.74611938 10.34970337 -68.05473877 10.19940674 -67.34240723 10.04455566 C-55.27444328 7.42536207 -43.18333425 5.02158648 -31 3 C-30.11328613 2.85046875 -29.22657227 2.7009375 -28.31298828 2.546875 C-9.5186499 -0.58945768 -9.5186499 -0.58945768 0 0 Z " fill="#ADBB58" transform="translate(303,49)"/>
<path d="M0 0 C0.48009262 2.06228466 0.95903544 4.12483701 1.4375 6.1875 C1.83775391 7.91033203 1.83775391 7.91033203 2.24609375 9.66796875 C2.49488281 10.76753906 2.74367188 11.86710937 3 13 C3.1959375 13.8559375 3.391875 14.711875 3.59375 15.59375 C4.03574873 18.21174246 4.09787364 20.65947687 4.0625 23.3125 C4.05347656 24.19550781 4.04445313 25.07851562 4.03515625 25.98828125 C4.01775391 26.98408203 4.01775391 26.98408203 4 28 C4.99 28.33 5.98 28.66 7 29 C6.34 29.33 5.68 29.66 5 30 C4.01 29.67 3.02 29.34 2 29 C1.95101563 28.14019531 1.90203125 27.28039062 1.8515625 26.39453125 C1.33133266 18.16951815 0.38973851 10.12254936 -1 2 C-1.94875 2.5775 -2.8975 3.155 -3.875 3.75 C-6.64592496 5.33338569 -9.39657533 6.60759054 -12.375 7.75 C-21.91466025 11.44041903 -31.16587681 15.99700502 -40.25 20.6875 C-44.94497982 23.06682028 -49.79709574 24.90897635 -54.72265625 26.75390625 C-57.7843274 27.91799814 -60.79791248 29.15722063 -63.8125 30.4375 C-71.12675426 33.51160686 -78.55235528 36.26907548 -86 39 C-86.63292969 39.23251465 -87.26585937 39.4650293 -87.91796875 39.70458984 C-95.22130163 42.37826805 -102.54466481 44.79362945 -110 47 C-111.62008208 47.48731681 -113.23987882 47.97558336 -114.859375 48.46484375 C-119.09880501 49.74270281 -123.34039067 51.01320794 -127.58349609 52.27880859 C-129.0894495 52.72825155 -130.59504789 53.17888791 -132.10009766 53.63134766 C-138.78086246 55.63506724 -145.36639669 57.36009552 -152.24609375 58.51171875 C-158.80066287 59.6738764 -165.27482229 61.31156412 -171.7265625 62.94140625 C-183.27965148 65.82789053 -194.93031284 67.71230059 -206.69873047 69.49560547 C-209.96939617 69.9953241 -213.23680605 70.51267581 -216.50390625 71.03515625 C-227.56456449 72.79263562 -238.63187911 74.39856761 -249.75 75.75 C-250.7915625 75.87769775 -251.833125 76.00539551 -252.90625 76.13696289 C-257.63019156 76.69269775 -262.2333461 77.16213108 -267 77 C-263.66880468 86.91814785 -263.66880468 86.91814785 -259.125 96.3125 C-256.48683689 101.26830173 -256.86222615 104.57369392 -258 110 C-255.15754571 112.12343334 -255.15754571 112.12343334 -252.0625 112.80078125 C-248.29185574 114.27729628 -247.21483734 115.84217277 -245 119.1875 C-242.6624135 122.63094473 -240.36694355 125.79679994 -237.5 128.8125 C-235.24441071 131.33632153 -235.01610487 131.85237204 -234.625 135.4375 C-234.74875 136.283125 -234.8725 137.12875 -235 138 C-234.1646875 138.09474609 -234.1646875 138.09474609 -233.3125 138.19140625 C-227.49042215 139.12569239 -224.50441386 140.93447641 -220.3203125 145 C-216.52234716 148.27366709 -212.11870903 150.56935295 -207.7578125 153.0078125 C-205 155 -205 155 -203.953125 157.65625 C-203.63859375 158.4296875 -203.3240625 159.203125 -203 160 C-200.59762636 161.01786529 -200.59762636 161.01786529 -197.625 161.375 C-190.73669607 162.69938109 -184.39850803 164.87195557 -177.85986328 167.39990234 C-165.03368736 172.15082529 -152.18158457 173.4894081 -138.60839844 173.33618164 C-136.36877612 173.31243401 -134.13034316 173.31567535 -131.890625 173.32226562 C-118.41942516 173.2990724 -105.82225604 171.6491802 -92.9375 167.5625 C-91.44959961 167.11293945 -91.44959961 167.11293945 -89.93164062 166.65429688 C-85.21900354 165.1932843 -81.15757807 163.70206547 -77 161 C-75.87335938 160.52046875 -74.74671875 160.0409375 -73.5859375 159.546875 C-60.02902973 153.69879714 -48.70691442 143.95366416 -38 134 C-37.40574219 133.45988281 -36.81148437 132.91976562 -36.19921875 132.36328125 C-31.61312348 128.01798335 -27.88894537 123.07390931 -24.07128906 118.06176758 C-21.54646183 114.79504174 -19.11542236 112.02576416 -15.8125 109.5 C-12.67328679 107.29996928 -12.67328679 107.29996928 -12.8125 104.0625 C-12.874375 103.051875 -12.93625 102.04125 -13 101 C-12.04275965 99.30928977 -11.08038021 97.62106362 -10.08032227 95.95532227 C-7.97955159 92.15304604 -6.74209605 87.98403283 -5.37695312 83.87304688 C-4.11252567 80.28648289 -2.88460646 77.66681586 -0.2890625 74.85546875 C2.25547893 72.23674651 2.25547893 72.23674651 2.19921875 69.1484375 C2.03035156 68.23320313 1.86148437 67.31796875 1.6875 66.375 C1.0003744 62.45013855 0.85022009 60.42998593 3 57 C2.96519531 57.93972656 2.96519531 57.93972656 2.9296875 58.8984375 C2.91164063 59.71570313 2.89359375 60.53296875 2.875 61.375 C2.84019531 62.59316406 2.84019531 62.59316406 2.8046875 63.8359375 C2.78629949 66.21342243 2.78629949 66.21342243 5 68 C4.91048027 71.9388682 4.31083756 73.64945882 1.67578125 76.62109375 C-1.60023684 80.42143951 -3.09800219 84.62690082 -4.75 89.3125 C-5.20439453 90.5180957 -5.20439453 90.5180957 -5.66796875 91.74804688 C-7.13940454 95.8124795 -8.15064428 99.502207 -8.48828125 103.8203125 C-8.8162136 107.68474533 -9.66946971 109.71390334 -12.4375 112.5625 C-13.05496094 113.22378906 -13.67242187 113.88507813 -14.30859375 114.56640625 C-16 116 -16 116 -18 116 C-18.26683594 116.56460938 -18.53367187 117.12921875 -18.80859375 117.7109375 C-23.18143122 126.1125203 -29.54372317 133.15928638 -36 140 C-36.60199219 140.66644531 -37.20398438 141.33289063 -37.82421875 142.01953125 C-51.83902779 156.94636691 -70.91159914 167.18569096 -90 174 C-91.07765625 174.39058594 -92.1553125 174.78117188 -93.265625 175.18359375 C-123.38902929 185.31129002 -159.90349278 182.07910226 -189 170 C-189.8971875 169.4534375 -190.794375 168.906875 -191.71875 168.34375 C-195.33671358 166.21262077 -199.14656196 166.11711977 -203.2578125 165.625 C-206.2122485 164.95162427 -207.32114972 164.500908 -209 162 C-209 160.68 -209 159.36 -209 158 C-209.7321875 157.73960937 -210.464375 157.47921875 -211.21875 157.2109375 C-214.06068812 155.9735768 -216.09420236 154.56488612 -218.5 152.625 C-219.28246094 152.00367188 -220.06492188 151.38234375 -220.87109375 150.7421875 C-222.4601824 149.44175899 -224.01951725 148.10481412 -225.5625 146.75 C-228.31602293 144.77311174 -230.91787097 143.81560851 -234.1328125 142.80859375 C-236.33088737 141.85670777 -237.51577177 140.8757731 -239 139 C-239.0825 137.948125 -239.165 136.89625 -239.25 135.8125 C-240.16912382 131.14028723 -242.01685003 129.31046242 -245.2109375 125.92578125 C-251 119.69432314 -251 119.69432314 -251 116 C-252.11375 115.814375 -252.11375 115.814375 -253.25 115.625 C-257.63667611 114.62802816 -259.46660641 113.80009038 -262 110 C-262.32914286 104.84342857 -262.32914286 104.84342857 -261.3125 102.23828125 C-260.82094867 98.71754484 -262.35005268 96.31018972 -263.8125 93.125 C-269.1382526 81.41087432 -269.1382526 81.41087432 -269 75 C-268.13648926 74.89977539 -267.27297852 74.79955078 -266.38330078 74.69628906 C-229.27667183 70.3631702 -193.2852374 64.34713077 -157.23828125 54.43359375 C-153.04101842 53.28056552 -148.83611279 52.16372254 -144.625 51.0625 C-128.69169559 46.81948745 -112.90439365 42.1191646 -97.30419922 36.78125 C-94.8025846 35.93306535 -92.2947954 35.10537926 -89.78515625 34.28125 C-80.44335935 31.20988164 -71.17089767 28.03128066 -61.98828125 24.51171875 C-59.22741938 23.45522803 -56.45486058 22.44278236 -53.66796875 21.45703125 C-39.0879574 16.27156681 -24.92028317 10.11845131 -10.91015625 3.55175781 C-9.92917969 3.09381836 -8.94820313 2.63587891 -7.9375 2.1640625 C-7.05964844 1.74850098 -6.18179687 1.33293945 -5.27734375 0.90478516 C-3 0 -3 0 0 0 Z " fill="#83A246" transform="translate(317,55)"/>
<path d="M0 0 C0.66 0 1.32 0 2 0 C3.625 2 3.625 2 5 4 C-7.30462989 17.48776738 -19.31229159 29.49926329 -35 39 C-36.48030304 39.95657708 -37.95969434 40.91456924 -39.4375 41.875 C-42.83080889 43.9725517 -46.2749672 45.54786857 -50 47 C-51.09634766 47.44279297 -51.09634766 47.44279297 -52.21484375 47.89453125 C-58.24513175 50.22673816 -64.3865284 52.01444431 -70.625 53.6875 C-71.41229492 53.90196777 -72.19958984 54.11643555 -73.01074219 54.33740234 C-83.2082895 57.00271873 -93.26488068 57.21354253 -103.75366211 57.24023438 C-106.03342076 57.249877 -108.31225104 57.2809526 -110.59179688 57.3125 C-123.47238041 57.40614561 -135.89641746 55.97742244 -148 51.3125 C-149.155 50.87550781 -150.31 50.43851563 -151.5 49.98828125 C-152.325 49.66214844 -153.15 49.33601563 -154 49 C-153.01 48.505 -153.01 48.505 -152 48 C-152 47.34 -152 46.68 -152 46 C-151.0706665 45.90501221 -150.14133301 45.81002441 -149.18383789 45.7121582 C-123.26767387 43.02071066 -98.18516328 39.29889413 -73.19042969 31.66699219 C-71.29034159 31.08840985 -69.38395373 30.5305941 -67.4765625 29.9765625 C-31.20773481 19.70250043 -31.20773481 19.70250043 0 0 Z " fill="#F9FBF6" transform="translate(287,172)"/>
<path d="M0 0 C0.48009262 2.06228466 0.95903544 4.12483701 1.4375 6.1875 C1.83775391 7.91033203 1.83775391 7.91033203 2.24609375 9.66796875 C2.49488281 10.76753906 2.74367188 11.86710937 3 13 C3.1959375 13.8559375 3.391875 14.711875 3.59375 15.59375 C4.03574873 18.21174246 4.09787364 20.65947687 4.0625 23.3125 C4.05347656 24.19550781 4.04445313 25.07851562 4.03515625 25.98828125 C4.01775391 26.98408203 4.01775391 26.98408203 4 28 C4.99 28.33 5.98 28.66 7 29 C6.34 29.33 5.68 29.66 5 30 C4.01 29.67 3.02 29.34 2 29 C1.95101563 28.14019531 1.90203125 27.28039062 1.8515625 26.39453125 C1.33133266 18.16951815 0.38973851 10.12254936 -1 2 C-1.94875 2.5775 -2.8975 3.155 -3.875 3.75 C-6.64592496 5.33338569 -9.39657533 6.60759054 -12.375 7.75 C-21.91466025 11.44041903 -31.16587681 15.99700502 -40.25 20.6875 C-44.94497982 23.06682028 -49.79709574 24.90897635 -54.72265625 26.75390625 C-57.7843274 27.91799814 -60.79791248 29.15722063 -63.8125 30.4375 C-71.12675426 33.51160686 -78.55235528 36.26907548 -86 39 C-86.63292969 39.23251465 -87.26585937 39.4650293 -87.91796875 39.70458984 C-95.22130163 42.37826805 -102.54466481 44.79362945 -110 47 C-111.62008208 47.48731681 -113.23987882 47.97558336 -114.859375 48.46484375 C-119.09880501 49.74270281 -123.34039067 51.01320794 -127.58349609 52.27880859 C-129.0894495 52.72825155 -130.59504789 53.17888791 -132.10009766 53.63134766 C-138.78086246 55.63506724 -145.36639669 57.36009552 -152.24609375 58.51171875 C-158.80066287 59.6738764 -165.27482229 61.31156412 -171.7265625 62.94140625 C-183.27965148 65.82789053 -194.93031284 67.71230059 -206.69873047 69.49560547 C-209.96939617 69.9953241 -213.23680605 70.51267581 -216.50390625 71.03515625 C-227.56456449 72.79263562 -238.63187911 74.39856761 -249.75 75.75 C-250.7915625 75.87769775 -251.833125 76.00539551 -252.90625 76.13696289 C-257.63019156 76.69269775 -262.2333461 77.16213108 -267 77 C-266.27944542 79.12793565 -265.54801549 81.25218913 -264.8125 83.375 C-264.59198975 84.01260254 -264.37147949 84.65020508 -264.14428711 85.30712891 C-262.75193483 89.22106018 -261.12248141 92.75305466 -259.0625 96.375 C-257.27296409 99.76894741 -256.68977009 101.77919505 -257.5 105.5625 C-257.995 106.696875 -258.49 107.83125 -259 109 C-260.485 109.495 -260.485 109.495 -262 110 C-262.12872996 104.33588163 -262.12872996 104.33588163 -261.3203125 102.2265625 C-260.81477992 98.71249456 -262.35268773 96.30445062 -263.8125 93.125 C-269.1382526 81.41087432 -269.1382526 81.41087432 -269 75 C-268.13648926 74.89977539 -267.27297852 74.79955078 -266.38330078 74.69628906 C-229.27667183 70.3631702 -193.2852374 64.34713077 -157.23828125 54.43359375 C-153.04101842 53.28056552 -148.83611279 52.16372254 -144.625 51.0625 C-128.69169559 46.81948745 -112.90439365 42.1191646 -97.30419922 36.78125 C-94.8025846 35.93306535 -92.2947954 35.10537926 -89.78515625 34.28125 C-80.44335935 31.20988164 -71.17089767 28.03128066 -61.98828125 24.51171875 C-59.22741938 23.45522803 -56.45486058 22.44278236 -53.66796875 21.45703125 C-39.0879574 16.27156681 -24.92028317 10.11845131 -10.91015625 3.55175781 C-9.92917969 3.09381836 -8.94820313 2.63587891 -7.9375 2.1640625 C-7.05964844 1.74850098 -6.18179687 1.33293945 -5.27734375 0.90478516 C-3 0 -3 0 0 0 Z " fill="#87A44B" transform="translate(317,55)"/>
<path d="M0 0 C0.99 0.495 0.99 0.495 2 1 C-6.76949226 7.55404158 -16.18900498 13.04027375 -25.60986328 18.59130859 C-27.07629218 19.45558793 -28.54118199 20.32249329 -30.00341797 21.19384766 C-42.1291729 28.41944628 -54.80208029 34.44851207 -67.8984375 39.69921875 C-69.71778093 40.46224313 -71.52761165 41.25031164 -73.31005859 42.09594727 C-80.65789738 45.56728794 -88.12286689 48.14575774 -95.875 50.5625 C-97.64037109 51.12227539 -97.64037109 51.12227539 -99.44140625 51.69335938 C-101.79714406 52.43843597 -104.15448005 53.17847936 -106.51342773 53.91333008 C-108.83570304 54.63712024 -111.15555807 55.36872254 -113.47290039 56.1081543 C-119.51238035 58.0162113 -125.435704 59.66947528 -131.6875 60.6875 C-136.48129721 61.38172282 -136.48129721 61.38172282 -141 63 C-149.59325878 64.6917892 -158.33014489 65.77630391 -167 67 C-167.87092285 67.12584473 -168.7418457 67.25168945 -169.63916016 67.38134766 C-188.91932128 70.05436106 -208.58474732 69.18456913 -228 69 C-228 68.67 -228 68.34 -228 68 C-224.34707286 67.11378691 -220.82623068 66.86982778 -217.07592773 66.76049805 C-196.59514918 66.13453947 -175.78743754 63.46458742 -155.82421875 58.86328125 C-152.56937547 58.12853113 -149.36085304 57.54929141 -146.0625 57.0625 C-115.60097034 52.15341051 -85.113864 41.52378436 -57 29 C-55.30180197 28.27105651 -53.60356252 27.54220762 -51.90454102 26.81518555 C-51.27604248 26.54617432 -50.64754395 26.27716309 -50 26 C-48.97314087 25.56071167 -48.97314087 25.56071167 -47.92553711 25.11254883 C-31.92239702 18.21820874 -16.05013403 10.573741 -1.58496094 0.79394531 C-1.06192383 0.53194336 -0.53888672 0.26994141 0 0 Z " fill="#83A246" transform="translate(311,101)"/>
<path d="M0 0 C0.99 0.495 0.99 0.495 2 1 C-14.69389067 12.59084268 -32.17105718 22.57870988 -50.69262695 30.95263672 C-52.33663434 31.69888491 -53.97526472 32.45702705 -55.61010742 33.22314453 C-61.98492493 36.18867549 -68.41232732 38.72288915 -75.0625 41 C-76.05765625 41.34321289 -77.0528125 41.68642578 -78.078125 42.04003906 C-86.31149373 44.84159827 -94.60341724 47.2721595 -103.01660156 49.46630859 C-104.84175421 49.95741934 -106.65238464 50.50168337 -108.4609375 51.05078125 C-132.32633675 58.12302199 -157.59229495 59.17614133 -182.3125 59.0625 C-184.22851445 59.05747279 -186.14453018 59.05291206 -188.06054688 59.04882812 C-192.70706353 59.03792424 -197.35351721 59.02072757 -202 59 C-202 58.67 -202 58.34 -202 58 C-200.58412598 57.89510254 -200.58412598 57.89510254 -199.13964844 57.78808594 C-182.77249732 56.56168854 -166.43952488 55.27304133 -150.1875 52.9375 C-149.0521582 52.77540039 -147.91681641 52.61330078 -146.74707031 52.44628906 C-141.33902518 51.63368124 -136.22867075 50.5846483 -131 49 C-129.31722282 48.71996928 -127.62921992 48.46963597 -125.9375 48.25 C-117.02694165 46.83367846 -108.40960019 44.2090867 -99.73925781 41.76269531 C-97.23529473 41.06551343 -94.72633819 40.39667805 -92.2109375 39.7421875 C-81.47139422 36.92253458 -71.26118503 33.23022383 -61 29 C-59.88625 28.54367188 -58.7725 28.08734375 -57.625 27.6171875 C-55.67136542 26.80826068 -53.72066249 25.99220508 -51.7734375 25.16796875 C-49.91043867 24.38341009 -48.04040497 23.61536893 -46.1640625 22.86328125 C-38.25925226 19.67380688 -30.70140806 15.9352992 -23.11279297 12.0703125 C-20.94660244 10.97294952 -18.77351182 9.89056159 -16.59765625 8.8125 C-15.8799707 8.45647705 -15.16228516 8.1004541 -14.42285156 7.73364258 C-13.05429289 7.05522126 -11.68518472 6.37790687 -10.31542969 5.7019043 C-7.51276361 4.30745119 -4.81468007 2.88267331 -2.16796875 1.20703125 C-1.09482422 0.60955078 -1.09482422 0.60955078 0 0 Z " fill="#86A44A" transform="translate(302,136)"/>
<path d="M0 0 C0.99 0.495 0.99 0.495 2 1 C-22.43626756 17.85831821 -47.0682881 30.69757621 -75.80126953 38.39746094 C-77.77007781 38.93699223 -79.72777744 39.51668424 -81.68359375 40.1015625 C-103.78737057 46.55773811 -126.1999344 46.40740519 -149 46 C-149 45.67 -149 45.34 -149 45 C-148.13125244 44.90501221 -147.26250488 44.81002441 -146.36743164 44.7121582 C-121.1106077 41.9095406 -96.56278108 38.1088557 -72.19042969 30.66699219 C-70.29034159 30.08840985 -68.38395373 29.5305941 -66.4765625 28.9765625 C-45.2490946 22.72060848 -24.63599985 14.24719182 -5.55834961 3.01049805 C-3.73655913 1.9517743 -1.87167201 0.96781218 0 0 Z " fill="#87A54B" transform="translate(286,173)"/>
<path d="M0 0 C-3.4352048 2.29013653 -4.985331 2.17842973 -9 2 C-4.545 2.99 -4.545 2.99 0 4 C0 4.33 0 4.66 0 5 C-8.65504642 6.41386682 -17.32045098 7.74515574 -26 9 C-26.87382324 9.12729492 -27.74764648 9.25458984 -28.64794922 9.38574219 C-47.92481996 12.05540239 -67.5884911 11.18453354 -87 11 C-87 10.67 -87 10.34 -87 10 C-83.34707286 9.11378691 -79.82623068 8.86982778 -76.07592773 8.76049805 C-55.64394448 8.13603081 -34.80353931 5.53770697 -14.91015625 0.83203125 C-3.28381219 -1.6419061 -3.28381219 -1.6419061 0 0 Z " fill="#90AA58" transform="translate(170,159)"/>
<path d="M0 0 C0.33 0 0.66 0 1 0 C0.97679687 0.62648438 0.95359375 1.25296875 0.9296875 1.8984375 C0.91164063 2.71570313 0.89359375 3.53296875 0.875 4.375 C0.85179687 5.18710938 0.82859375 5.99921875 0.8046875 6.8359375 C0.78629949 9.21342243 0.78629949 9.21342243 3 11 C2.91048027 14.9388682 2.31083756 16.64945882 -0.32421875 19.62109375 C-3.60023684 23.42143951 -5.09800219 27.62690082 -6.75 32.3125 C-7.05292969 33.11623047 -7.35585938 33.91996094 -7.66796875 34.74804688 C-9.13940454 38.8124795 -10.15064428 42.502207 -10.48828125 46.8203125 C-10.8162136 50.68474533 -11.66946971 52.71390334 -14.4375 55.5625 C-15.05496094 56.22378906 -15.67242187 56.88507813 -16.30859375 57.56640625 C-18 59 -18 59 -20 59 C-20.26683594 59.56460938 -20.53367187 60.12921875 -20.80859375 60.7109375 C-25.18209458 69.11379483 -31.56251953 76.13919315 -38 83 C-38.33 82.34 -38.66 81.68 -39 81 C-39.78375 81.515625 -40.5675 82.03125 -41.375 82.5625 C-42.24125 83.036875 -43.1075 83.51125 -44 84 C-44.66 83.67 -45.32 83.34 -46 83 C-44.78376953 81.83597656 -44.78376953 81.83597656 -43.54296875 80.6484375 C-37.07314307 74.36635669 -31.19087442 67.96951269 -25.76904297 60.75927734 C-23.35225285 57.58336149 -20.97851316 54.93002613 -17.8125 52.5 C-14.67328679 50.29996928 -14.67328679 50.29996928 -14.8125 47.0625 C-14.874375 46.051875 -14.93625 45.04125 -15 44 C-14.04275965 42.30928977 -13.08038021 40.62106362 -12.08032227 38.95532227 C-9.97955159 35.15304604 -8.74209605 30.98403283 -7.37695312 26.87304688 C-6.11329109 23.28865402 -4.88518738 20.66665853 -2.29296875 17.85546875 C0.24857784 15.23648759 0.24857784 15.23648759 0.234375 12.1484375 C-0.00539063 10.77558594 -0.00539063 10.77558594 -0.25 9.375 C-0.81807201 5.87841883 -1.11550641 3.39432665 0 0 Z " fill="#88A44E" transform="translate(319,112)"/>
<path d="M0 0 C0.99 0.495 0.99 0.495 2 1 C-38.05195592 28.63141368 -38.05195592 28.63141368 -60 34 C-60.99 33.67 -61.98 33.34 -63 33 C-62.34 33 -61.68 33 -61 33 C-59.89163577 31.11683841 -59.89163577 31.11683841 -59 29 C-59.33 28.34 -59.66 27.68 -60 27 C-59.15743652 26.7071814 -59.15743652 26.7071814 -58.29785156 26.40844727 C-39.96909261 19.99709943 -22.32116201 12.88259014 -5.55761719 3.01025391 C-3.73611332 1.95154136 -1.8714469 0.96769578 0 0 Z " fill="#85A349" transform="translate(286,173)"/>
<path d="M0 0 C-2.80534313 1.54620535 -5.15318699 2.33511701 -8.32421875 2.74609375 C-9.17628906 2.85977295 -10.02835938 2.97345215 -10.90625 3.09057617 C-11.8240625 3.20506104 -12.741875 3.3195459 -13.6875 3.4375 C-15.12029297 3.62372925 -15.12029297 3.62372925 -16.58203125 3.8137207 C-19.72030635 4.21791553 -22.85997129 4.60967666 -26 5 C-27.67376709 5.21172852 -27.67376709 5.21172852 -29.38134766 5.42773438 C-32.75354543 5.85341235 -36.12651894 6.27212259 -39.5 6.6875 C-40.55533936 6.81890381 -41.61067871 6.95030762 -42.69799805 7.08569336 C-47.49229007 7.66265132 -52.16012602 8.17403656 -57 8 C-56.27944542 10.12793565 -55.54801549 12.25218913 -54.8125 14.375 C-54.59198975 15.01260254 -54.37147949 15.65020508 -54.14428711 16.30712891 C-52.75193483 20.22106018 -51.12248141 23.75305466 -49.0625 27.375 C-47.27296409 30.76894741 -46.68977009 32.77919505 -47.5 36.5625 C-47.995 37.696875 -48.49 38.83125 -49 40 C-50.485 40.495 -50.485 40.495 -52 41 C-52.12872996 35.33588163 -52.12872996 35.33588163 -51.3203125 33.2265625 C-50.81477992 29.71249456 -52.35268773 27.30445062 -53.8125 24.125 C-59.1382526 12.41087432 -59.1382526 12.41087432 -59 6 C-58.10506836 5.89453857 -57.21013672 5.78907715 -56.28808594 5.68041992 C-52.1083359 5.18598608 -47.92908291 4.68753498 -43.75 4.1875 C-42.62336441 4.05319077 -42.62336441 4.05319077 -41.47396851 3.91616821 C-31.6046243 2.73609912 -21.75946277 1.49296528 -11.96582031 -0.22387695 C-7.70625493 -0.92852089 -4.21441892 -0.97562139 0 0 Z " fill="#99B066" transform="translate(107,124)"/>
<path d="M0 0 C0.66 0.33 1.32 0.66 2 1 C-11.74727128 11.27427643 -27.01969648 19.67095124 -42 28 C-42.82242187 28.46535156 -43.64484375 28.93070313 -44.4921875 29.41015625 C-49.43338541 32.07985109 -49.43338541 32.07985109 -52.0234375 31.71484375 C-54 31 -54 31 -57 29 C-56.03191406 28.58621094 -55.06382812 28.17242187 -54.06640625 27.74609375 C-52.71084951 27.16426747 -51.35538776 26.58221983 -50 26 C-49.3076123 25.70367676 -48.61522461 25.40735352 -47.90185547 25.10205078 C-31.90631181 18.21314618 -16.04237423 10.56849466 -1.58496094 0.79394531 C-1.06192383 0.53194336 -0.53888672 0.26994141 0 0 Z " fill="#89A64E" transform="translate(311,101)"/>
<path d="M0 0 C0.48009262 2.06228466 0.95903544 4.12483701 1.4375 6.1875 C1.70433594 7.33605469 1.97117187 8.48460937 2.24609375 9.66796875 C2.49488281 10.76753906 2.74367188 11.86710937 3 13 C3.29390625 14.28390625 3.29390625 14.28390625 3.59375 15.59375 C4.03574873 18.21174246 4.09787364 20.65947687 4.0625 23.3125 C4.05347656 24.19550781 4.04445313 25.07851562 4.03515625 25.98828125 C4.02355469 26.65214844 4.01195312 27.31601563 4 28 C4.99 28.33 5.98 28.66 7 29 C6.01 29.495 6.01 29.495 5 30 C4.01 29.67 3.02 29.34 2 29 C1.95101562 28.14019531 1.90203125 27.28039062 1.8515625 26.39453125 C1.33133266 18.16951815 0.38973851 10.12254936 -1 2 C-1.94875 2.5775 -2.8975 3.155 -3.875 3.75 C-6.64592496 5.33338569 -9.39657533 6.60759054 -12.375 7.75 C-17.18511968 9.61079553 -21.83852704 11.73701206 -26.5 13.9375 C-27.23686035 14.28530518 -27.9737207 14.63311035 -28.73291016 14.99145508 C-33.51323133 17.26218761 -38.24630076 19.60909843 -42.921875 22.08984375 C-45.25805926 23.11302219 -47.49024829 23.58317061 -50 24 C-50 23.34 -50 22.68 -50 22 C-50.66 21.67 -51.32 21.34 -52 21 C-51.09918701 20.64518555 -50.19837402 20.29037109 -49.27026367 19.92480469 C-40.53623382 16.46770908 -31.88200907 12.85495911 -23.27075195 9.10302734 C-21.27600138 8.23410096 -19.2797085 7.36879209 -17.28320312 6.50390625 C-10.95713317 3.82652837 -10.95713317 3.82652837 -4.78588867 0.82324219 C-3 0 -3 0 0 0 Z " fill="#8AA551" transform="translate(317,55)"/>
<path d="M0 0 C0 0.66 0 1.32 0 2 C-5.40101949 7.40101949 -11.15400161 7.04899464 -18.37109375 7.09765625 C-20.72658241 7.09105824 -23.08206134 7.07920524 -25.4375 7.0625 C-26.64599609 7.05798828 -27.85449219 7.05347656 -29.09960938 7.04882812 C-32.06645789 7.03710145 -35.0332027 7.02068896 -38 7 C-37.67 5.68 -37.34 4.36 -37 3 C-29.23185786 2.16181896 -21.59174972 1.90441188 -13.78930664 2.125 C-8.61474689 2.21155321 -4.976716 0 0 0 Z " fill="#7C9D3A" transform="translate(210,228)"/>
<path d="M0 0 C1.10091476 0.00007553 2.20182953 0.00015106 3.33610535 0.00022888 C4.52367935 0.00539017 5.71125336 0.01055145 6.93481445 0.01586914 C8.15135208 0.01728409 9.36788971 0.01869904 10.62129211 0.02015686 C14.51358481 0.02576227 18.40582035 0.03831572 22.2980957 0.05102539 C24.93416258 0.05603969 27.57023036 0.06060272 30.20629883 0.06469727 C36.67441734 0.07573346 43.14250244 0.09247689 49.6105957 0.11352539 C49.2805957 1.10352539 48.9505957 2.09352539 48.6105957 3.11352539 C38.0505957 3.11352539 27.4905957 3.11352539 16.6105957 3.11352539 C16.9405957 4.10352539 17.2705957 5.09352539 17.6105957 6.11352539 C12.91357121 7.40520713 10.26604447 6.76478828 5.8371582 4.87524414 C2.51019325 3.73707192 -0.79427362 3.60058315 -4.2878418 3.42211914 C-6.3894043 3.11352539 -6.3894043 3.11352539 -8.3894043 1.11352539 C-5.31102635 0.08739941 -3.22366134 -0.0073768 0 0 Z " fill="#809F40" transform="translate(156.389404296875,227.886474609375)"/>
<path d="M0 0 C1.175625 0.4125 2.35125 0.825 3.5625 1.25 C10.2802598 3.50001891 17.14606828 5.22104802 24 7 C23.360625 7.309375 22.72125 7.61875 22.0625 7.9375 C20.06389179 8.8345163 20.06389179 8.8345163 19 10 C19.99580078 10.07347656 19.99580078 10.07347656 21.01171875 10.1484375 C29.78207381 10.89103691 29.78207381 10.89103691 34 13 C22.60125142 16.58020741 7.62499089 8.7357683 -3 5 C-2.01 4.34 -1.02 3.68 0 3 C0 2.01 0 1.02 0 0 Z " fill="#85A349" transform="translate(131,220)"/>
<path d="M0 0 C-0.99 1.32 -1.98 2.64 -3 4 C-2.34 4 -1.68 4 -1 4 C-1 3.34 -1 2.68 -1 2 C0.32 2.66 1.64 3.32 3 4 C0.14996588 5.01334547 -2.70408664 6.01080629 -5.5625 7 C-6.36236328 7.28617188 -7.16222656 7.57234375 -7.98632812 7.8671875 C-12.87825307 9.54441891 -16.82953879 10.33313039 -22 10 C-21.67 9.01 -21.34 8.02 -21 7 C-20.34 7 -19.68 7 -19 7 C-19 6.34 -19 5.68 -19 5 C-19.99 4.67 -20.98 4.34 -22 4 C-18.89948553 3.1321772 -15.79413335 2.28313233 -12.6875 1.4375 C-11.80642578 1.19064453 -10.92535156 0.94378906 -10.01757812 0.68945312 C-9.17001953 0.46064453 -8.32246094 0.23183594 -7.44921875 -0.00390625 C-6.66893311 -0.21861572 -5.88864746 -0.4333252 -5.0847168 -0.65454102 C-3 -1 -3 -1 0 0 Z " fill="#81A143" transform="translate(229,223)"/>
<path d="M0 0 C-0.33 0.99 -0.66 1.98 -1 3 C-3.83104228 4.03874934 -6.52935799 4.87439044 -9.4375 5.625 C-10.2526709 5.84373779 -11.0678418 6.06247559 -11.90771484 6.2878418 C-17.60916011 7.7690385 -23.10361194 8.7146909 -29 9 C-29 8.01 -29 7.02 -29 6 C-8.37006754 -2.71781017 -8.37006754 -2.71781017 0 0 Z " fill="#7D9D39" transform="translate(198,102)"/>
<path d="M0 0 C-0.33 1.65 -0.66 3.3 -1 5 C-3.72681111 5.84179395 -6.45601443 6.67363069 -9.1875 7.5 C-9.95642578 7.73847656 -10.72535156 7.97695312 -11.51757812 8.22265625 C-15.44356128 9.40213617 -18.85048821 10.3326262 -23 10 C-23 9.34 -23 8.68 -23 8 C-23.66 7.67 -24.32 7.34 -25 7 C-22.22927957 6.02051288 -19.45842883 5.04139725 -16.6875 4.0625 C-15.50897461 3.64581055 -15.50897461 3.64581055 -14.30664062 3.22070312 C-13.54931641 2.95322266 -12.79199219 2.68574219 -12.01171875 2.41015625 C-11.31522217 2.16402588 -10.61872559 1.91789551 -9.90112305 1.66430664 C-6.38959676 0.43727915 -3.71867925 -0.10050484 0 0 Z " fill="#81A142" transform="translate(228,172)"/>
<path d="M0 0 C0.66 0.33 1.32 0.66 2 1 C-9.01259977 8.58865245 -20.35821917 15.42142195 -32 22 C-32.33 21.01 -32.66 20.02 -33 19 C-34.32 19.33 -35.64 19.66 -37 20 C-35.50874048 17.01748096 -33.39729363 16.82971231 -30.3125 15.625 C-22.27579467 12.38324002 -14.80985343 8.16157508 -7.2902832 3.87548828 C-6.374646 3.36099121 -5.45900879 2.84649414 -4.515625 2.31640625 C-3.28247559 1.61173218 -3.28247559 1.61173218 -2.02441406 0.89282227 C-1.35635742 0.59819092 -0.68830078 0.30355957 0 0 Z " fill="#8EA956" transform="translate(302,136)"/>
<path d="M0 0 C0.77214844 0.00902344 1.54429687 0.01804688 2.33984375 0.02734375 C2.90832031 0.03894531 3.47679687 0.05054688 4.0625 0.0625 C0.76006694 3.36493306 -3.38721086 2.71247776 -7.9375 3.0625 C-3.3175 3.0625 1.3025 3.0625 6.0625 3.0625 C6.0625 3.3925 6.0625 3.7225 6.0625 4.0625 C-5.37709203 5.24526234 -16.76381035 5.1778032 -28.25 5.125 C-30.16601445 5.11997279 -32.08203018 5.11541206 -33.99804688 5.11132812 C-38.64456353 5.10042424 -43.29101721 5.08322757 -47.9375 5.0625 C-47.9375 4.7325 -47.9375 4.4025 -47.9375 4.0625 C-46.88361084 3.97685791 -45.82972168 3.89121582 -44.74389648 3.80297852 C-40.80947496 3.48268904 -36.87528735 3.15960011 -32.94116211 2.83569336 C-31.24298185 2.69626518 -29.54474024 2.55758198 -27.84643555 2.41967773 C-25.39615379 2.22057886 -22.94610993 2.0187439 -20.49609375 1.81640625 C-19.36910316 1.72571617 -19.36910316 1.72571617 -18.21934509 1.63319397 C-12.13282872 1.12625023 -6.11175451 -0.09402699 0 0 Z " fill="#93AC5E" transform="translate(147.9375,189.9375)"/>
<path d="M0 0 C-0.33 1.32 -0.66 2.64 -1 4 C-4.7513465 5.17125374 -8.49631612 5.22059865 -12.390625 5.31640625 C-13.44754547 5.3475779 -13.44754547 5.3475779 -14.52581787 5.37937927 C-16.76711681 5.44453837 -19.00852864 5.50360248 -21.25 5.5625 C-22.77344897 5.60571726 -24.29688671 5.64933257 -25.8203125 5.69335938 C-29.54675591 5.80018491 -33.27332494 5.90154639 -37 6 C-37 5.67 -37 5.34 -37 5 C-34.81347261 4.66034526 -32.62571975 4.32857523 -30.4375 4 C-29.21933594 3.814375 -28.00117188 3.62875 -26.74609375 3.4375 C-23.12372152 3.01444923 -19.64287954 2.92498575 -16 3 C-15.67 2.34 -15.34 1.68 -15 1 C-10.03901518 -0.24024621 -5.07558808 -0.10151176 0 0 Z " fill="#87A44C" transform="translate(167,188)"/>
<path d="M0 0 C-2.87093636 1.59083602 -5.28730474 2.35442211 -8.53515625 2.78125 C-9.85942627 2.95962402 -9.85942627 2.95962402 -11.21044922 3.14160156 C-12.62221436 3.31900879 -12.62221436 3.31900879 -14.0625 3.5 C-15.03461426 3.62600586 -16.00672852 3.75201172 -17.00830078 3.88183594 C-20.0043651 4.26468532 -23.00184122 4.63394861 -26 5 C-26.91088379 5.11408203 -27.82176758 5.22816406 -28.76025391 5.34570312 C-31.29719536 5.65982303 -33.835389 5.95833099 -36.375 6.25 C-37.5043396 6.38825195 -37.5043396 6.38825195 -38.65649414 6.52929688 C-43.63730089 7.06939108 -48.04840967 6.78241834 -53 6 C-53 5.67 -53 5.34 -53 5 C-52.28682617 4.92483154 -51.57365234 4.84966309 -50.83886719 4.7722168 C-47.47541884 4.41508661 -44.11261636 4.05238299 -40.75 3.6875 C-39.52901611 3.55504883 -38.30803223 3.42259766 -37.05004883 3.28613281 C-28.74850622 2.36331699 -20.4988396 1.26727793 -12.27050781 -0.1730957 C-7.89429352 -0.89726173 -4.39465781 -1.03403713 0 0 Z " fill="#9EB570" transform="translate(107,124)"/>
<path d="M0 0 C-0.66 0.66 -1.32 1.32 -2 2 C-0.02 2 1.96 2 4 2 C0.95245298 4.03169801 -0.59409406 4.43666458 -4.125 5 C-9.13087841 5.83986775 -14.05313684 6.86465436 -19 8 C-19 7.01 -19 6.02 -19 5 C-21.31 5.33 -23.62 5.66 -26 6 C-22.48252772 3.65501848 -19.04997617 2.88513677 -15 1.9375 C-3.00609756 -0.93292683 -3.00609756 -0.93292683 0 0 Z " fill="#91AB5C" transform="translate(172,108)"/>
<path d="M0 0 C0.48009262 2.06228466 0.95903544 4.12483701 1.4375 6.1875 C1.83775391 7.91033203 1.83775391 7.91033203 2.24609375 9.66796875 C2.49488281 10.76753906 2.74367188 11.86710937 3 13 C3.29390625 14.28390625 3.29390625 14.28390625 3.59375 15.59375 C4.03574873 18.21174246 4.09787364 20.65947687 4.0625 23.3125 C4.05347656 24.19550781 4.04445313 25.07851562 4.03515625 25.98828125 C4.02355469 26.65214844 4.01195312 27.31601563 4 28 C4.99 28.33 5.98 28.66 7 29 C6.34 29.33 5.68 29.66 5 30 C4.01 29.67 3.02 29.34 2 29 C1.95101563 28.14019531 1.90203125 27.28039062 1.8515625 26.39453125 C1.33133266 18.16951815 0.38973851 10.12254936 -1 2 C-2.03125 2.66 -3.0625 3.32 -4.125 4 C-7.53576826 5.97282726 -10.0201643 6.38827665 -14 6 C-11.68058494 4.45372329 -9.47020248 3.13817172 -7 1.875 C-6.319375 1.52179687 -5.63875 1.16859375 -4.9375 0.8046875 C-3 0 -3 0 0 0 Z " fill="#C0CBA3" transform="translate(317,55)"/>
<path d="M0 0 C7.28695785 -0.474377 11.97181491 -0.28670939 18 4 C17.67 4.99 17.34 5.98 17 7 C11.534524 6.41856638 5.95421849 5.48774061 1 3 C0.67 2.01 0.34 1.02 0 0 Z " fill="#7E9D40" transform="translate(114,217)"/>
<path d="M0 0 C2 1.625 2 1.625 4 4 C4.25 7.25 4.25 7.25 4 10 C8.455 10.99 8.455 10.99 13 12 C11.68 12.33 10.36 12.66 9 13 C9.33 13.99 9.66 14.98 10 16 C5.56752674 15.49343163 2.88766898 14.46520277 0 11 C-0.42676144 7.29784452 -0.28781259 3.70958445 0 0 Z " fill="#89A650" transform="translate(78,183)"/>
<path d="M0 0 C0 0.66 0 1.32 0 2 C-0.99 2 -1.98 2 -3 2 C-3 2.66 -3 3.32 -3 4 C-1.02 4 0.96 4 3 4 C3 4.33 3 4.66 3 5 C-2.28 5.66 -7.56 6.32 -13 7 C-13 6.01 -13 5.02 -13 4 C-13.66 3.34 -14.32 2.68 -15 2 C-9.75614911 0.2520497 -5.52677733 -0.19392201 0 0 Z " fill="#8CA954" transform="translate(179,185)"/>
<path d="M0 0 C-2.31 0.66 -4.62 1.32 -7 2 C-7 2.66 -7 3.32 -7 4 C-6.01 4.33 -5.02 4.66 -4 5 C-7.44069624 7.29379749 -8.72290301 8 -13 8 C-13 7.34 -13 6.68 -13 6 C-13.8971875 6.309375 -13.8971875 6.309375 -14.8125 6.625 C-17 7 -17 7 -20 5 C-17.42138975 3.96555751 -14.83825365 2.94727716 -12.25 1.9375 C-11.15558594 1.49567383 -11.15558594 1.49567383 -10.0390625 1.04492188 C-8.97558594 0.6340332 -8.97558594 0.6340332 -7.890625 0.21484375 C-7.24125977 -0.04176025 -6.59189453 -0.29836426 -5.92285156 -0.56274414 C-3.63367214 -1.08330284 -2.20743336 -0.72364304 0 0 Z " fill="#8AA64F" transform="translate(238,139)"/>
<path d="M0 0 C0.33 0 0.66 0 1 0 C0.96519531 0.93972656 0.96519531 0.93972656 0.9296875 1.8984375 C0.91164063 2.71570313 0.89359375 3.53296875 0.875 4.375 C0.85179687 5.18710938 0.82859375 5.99921875 0.8046875 6.8359375 C0.78629949 9.21342243 0.78629949 9.21342243 3 11 C2.89307386 15.70475003 1.45842677 17.70992803 -1.65625 21.078125 C-4.51720511 25.16995614 -5.62352814 30.24771167 -7 35 C-7.99 35 -8.98 35 -10 35 C-6.02431611 22.07902736 -6.02431611 22.07902736 -1.6875 17.625 C0.7320082 13.86132058 -0.08689661 10.92979397 -0.73828125 6.62109375 C-0.99264939 4.07361577 -0.7883889 2.41054161 0 0 Z " fill="#9BB06C" transform="translate(319,112)"/>
<path d="M0 0 C0.33 0.99 0.66 1.98 1 3 C-0.5778125 3.185625 -0.5778125 3.185625 -2.1875 3.375 C-5.48680581 3.9158698 -7.94131131 4.75999107 -11 6 C-12.32 6 -13.64 6 -15 6 C-15 5.34 -15 4.68 -15 4 C-16.32 3.34 -17.64 2.68 -19 2 C-12.6221448 0.82706111 -6.49678438 -0.29530838 0 0 Z " fill="#87A34C" transform="translate(194,211)"/>
<path d="M0 0 C0.33 0.99 0.66 1.98 1 3 C-4.57067277 4.59162079 -9.21101581 5.20674944 -15 5 C-15 4.34 -15 3.68 -15 3 C-14.01 3 -13.02 3 -12 3 C-12 2.01 -12 1.02 -12 0 C-2.85714286 -1.37142857 -2.85714286 -1.37142857 0 0 Z " fill="#82A146" transform="translate(191,184)"/>
<path d="M0 0 C0.66 0.33 1.32 0.66 2 1 C-0.89068952 2.96600985 -3.78840633 4.92140874 -6.6875 6.875 C-7.50412109 7.43058594 -8.32074219 7.98617187 -9.16210938 8.55859375 C-9.95810547 9.09355469 -10.75410156 9.62851563 -11.57421875 10.1796875 C-12.30213623 10.67194824 -13.03005371 11.16420898 -13.7800293 11.67138672 C-16.11574183 13.06926944 -18.45099243 14.05563286 -21 15 C-21 14.34 -21 13.68 -21 13 C-21.66 12.67 -22.32 12.34 -23 12 C-21.92621094 11.46890625 -20.85242188 10.9378125 -19.74609375 10.390625 C-18.30984158 9.67719255 -16.87364672 8.96364471 -15.4375 8.25 C-14.73302734 7.90195313 -14.02855469 7.55390625 -13.30273438 7.1953125 C-9.82118843 5.46256152 -6.42943373 3.67940699 -3.09765625 1.671875 C-2.07542969 1.12015625 -1.05320312 0.5684375 0 0 Z " fill="#8EA857" transform="translate(286,173)"/>
<path d="M0 0 C0.66 0.33 1.32 0.66 2 1 C-3.52876324 4.99368903 -9.14887809 8.85741017 -14.875 12.5625 C-16.47988281 13.61630859 -16.47988281 13.61630859 -18.1171875 14.69140625 C-19.06851562 15.12324219 -20.01984375 15.55507812 -21 16 C-23.18017578 15.08178711 -23.18017578 15.08178711 -25 14 C-24.45585449 13.71801758 -23.91170898 13.43603516 -23.35107422 13.14550781 C-20.85717972 11.85057046 -18.36608561 10.55033208 -15.875 9.25 C-15.0190625 8.8065625 -14.163125 8.363125 -13.28125 7.90625 C-8.66520918 5.49170557 -4.26538359 2.99276095 0 0 Z " fill="#9EB26E" transform="translate(311,101)"/>
<path d="M0 0 C-2.1862225 1.10675619 -4.37390948 2.21044378 -6.5625 3.3125 C-7.17158203 3.62123047 -7.78066406 3.92996094 -8.40820312 4.24804688 C-12.54602951 6.3279067 -16.72735662 8.2128583 -21 10 C-21 9.34 -21 8.68 -21 8 C-21.66 7.67 -22.32 7.34 -23 7 C-19.92464542 5.62716958 -16.83865719 4.28010207 -13.75 2.9375 C-12.87730469 2.54755859 -12.00460937 2.15761719 -11.10546875 1.75585938 C-10.26113281 1.39169922 -9.41679687 1.02753906 -8.546875 0.65234375 C-7.77182617 0.31195068 -6.99677734 -0.02844238 -6.19824219 -0.37915039 C-3.71037218 -1.0817996 -2.40895758 -0.84697413 0 0 Z " fill="#9CB26B" transform="translate(305,62)"/>
<path d="M0 0 C0.66 0.33 1.32 0.66 2 1 C-0.39205419 2.63080927 -2.78832782 4.25472186 -5.1875 5.875 C-5.86103516 6.33519531 -6.53457031 6.79539063 -7.22851562 7.26953125 C-14.3877479 12.08891688 -14.3877479 12.08891688 -18 13 C-18.99 12.34 -19.98 11.68 -21 11 C-19.90300781 10.45730469 -18.80601562 9.91460937 -17.67578125 9.35546875 C-16.22130061 8.6329203 -14.7668765 7.91025804 -13.3125 7.1875 C-12.59126953 6.83107422 -11.87003906 6.47464844 -11.12695312 6.10742188 C-8.02508407 4.56356924 -5.04048818 3.02551684 -2.10546875 1.17578125 C-1.41066406 0.78777344 -0.71585937 0.39976562 0 0 Z " fill="#9FB471" transform="translate(302,136)"/>
<path d="M0 0 C-0.99 1.32 -1.98 2.64 -3 4 C-2.34 4 -1.68 4 -1 4 C-1 3.34 -1 2.68 -1 2 C0.32 2.66 1.64 3.32 3 4 C-0.78187881 5.83691257 -2.94568308 6.15837626 -7 5 C-7 4.34 -7 3.68 -7 3 C-10.3 3.33 -13.6 3.66 -17 4 C-14.05276949 2.03517966 -11.88022174 1.2438783 -8.5 0.3125 C-7.5409375 0.04050781 -6.581875 -0.23148438 -5.59375 -0.51171875 C-3 -1 -3 -1 0 0 Z " fill="#90AB5B" transform="translate(229,223)"/>
<path d="M0 0 C0 0.33 0 0.66 0 1 C2.97 1.33 5.94 1.66 9 2 C9 2.33 9 2.66 9 3 C-1.89 3 -12.78 3 -24 3 C-24 2.67 -24 2.34 -24 2 C-21.50072231 1.66029235 -19.00080405 1.32811968 -16.5 1 C-15.80390625 0.90460938 -15.1078125 0.80921875 -14.390625 0.7109375 C-9.55299871 0.0838378 -4.87818804 -0.08789528 0 0 Z " fill="#95AC5F" transform="translate(161,216)"/>
<path d="M0 0 C-0.33 0.99 -0.66 1.98 -1 3 C-19.315 2.505 -19.315 2.505 -38 2 C-38 1.67 -38 1.34 -38 1 C-33.87408284 0.85582297 -29.74810667 0.71347951 -25.62207031 0.57275391 C-24.22166279 0.52474178 -22.82127163 0.47624929 -21.42089844 0.42724609 C-7.101645 -0.07321284 -7.101645 -0.07321284 0 0 Z " fill="#B0C38C" transform="translate(206,228)"/>
<path d="M0 0 C0 0.99 0 1.98 0 3 C-4.92984325 5.03993514 -8.57960425 6.40652968 -14 6 C-11.38257345 0.76514691 -5.33862662 -0.52084162 0 0 Z " fill="#7F9F3E" transform="translate(249,84)"/>
<path d="M0 0 C2.00720923 0.28674418 4.0085944 0.61866701 6 1 C2.61194839 3.25870108 1.22649259 3.29259413 -2.76171875 3.4140625 C-4.43911133 3.47207031 -4.43911133 3.47207031 -6.15039062 3.53125 C-7.31763672 3.5621875 -8.48488281 3.593125 -9.6875 3.625 C-11.45577148 3.68300781 -11.45577148 3.68300781 -13.25976562 3.7421875 C-16.17301977 3.83654391 -19.08626607 3.92213161 -22 4 C-22 3.67 -22 3.34 -22 3 C-19.81347261 2.66034526 -17.62571975 2.32857523 -15.4375 2 C-14.21933594 1.814375 -13.00117188 1.62875 -11.74609375 1.4375 C-8.12665157 1.01479142 -4.63837938 1 -1 1 C-0.67 0.67 -0.34 0.34 0 0 Z " fill="#7A9E35" transform="translate(152,190)"/>
<path d="M0 0 C0 0.99 0 1.98 0 3 C-5.80766296 4.5056904 -10.9981863 5.21824777 -17 5 C-14.0387936 2.4922498 -11.74762773 1.48487548 -7.9375 0.8125 C-7.08027344 0.65394531 -6.22304687 0.49539062 -5.33984375 0.33203125 C-3 0 -3 0 0 0 Z " fill="#82A245" transform="translate(153,113)"/>
<path d="M0 0 C-2.59180662 2.97295465 -4.32720379 4.78470521 -8.125 6 C-11 6 -11 6 -12.6796875 4.5 C-13.11539063 4.005 -13.55109375 3.51 -14 3 C-12.42274653 2.29866401 -10.83788667 1.614417 -9.25 0.9375 C-7.92742187 0.36322266 -7.92742187 0.36322266 -6.578125 -0.22265625 C-3.84743691 -1.04600008 -2.63098653 -0.9773992 0 0 Z " fill="#7C9E3A" transform="translate(228,202)"/>
<path d="M0 0 C0.33 0.99 0.66 1.98 1 3 C1.99 3.66 2.98 4.32 4 5 C1.03 5.66 -1.94 6.32 -5 7 C-5.33 6.01 -5.66 5.02 -6 4 C-8.31 4 -10.62 4 -13 4 C-10.34531286 2.23020858 -8.92500069 1.57859829 -5.9375 0.875 C-5.24527344 0.70742187 -4.55304688 0.53984375 -3.83984375 0.3671875 C-2 0 -2 0 0 0 Z " fill="#8EA856" transform="translate(204,149)"/>
<path d="M0 0 C-1.32 0.33 -2.64 0.66 -4 1 C-4 1.99 -4 2.98 -4 4 C-3.34 4.33 -2.68 4.66 -2 5 C-8.625 8.125 -8.625 8.125 -12 7 C-11.34 7 -10.68 7 -10 7 C-8.89163577 5.11683841 -8.89163577 5.11683841 -8 3 C-8.33 2.34 -8.66 1.68 -9 1 C-5.57367167 -0.61798838 -3.61944899 -1.34053666 0 0 Z " fill="#99B169" transform="translate(235,199)"/>
<path d="M0 0 C-1.98 0.99 -1.98 0.99 -4 2 C-2.35 2.33 -0.7 2.66 1 3 C-2.23960066 5.15973378 -4.14751405 5.75921963 -8 6 C-9.875 4.5625 -9.875 4.5625 -11 3 C-7.68381684 -0.31618316 -4.50821267 -1.6697084 0 0 Z " fill="#8BA855" transform="translate(228,91)"/>
<path d="M0 0 C1.125 3.75 1.125 3.75 0 6 C0.99 6.33 1.98 6.66 3 7 C-0.3 7.66 -3.6 8.32 -7 9 C-6.67 8.01 -6.34 7.02 -6 6 C-5.34 6 -4.68 6 -4 6 C-4 5.01 -4 4.02 -4 3 C-2 1.3125 -2 1.3125 0 0 Z " fill="#B4C067" transform="translate(196,82)"/>
<path d="M0 0 C1 3 1 3 0.125 5.125 C-1.39853179 9.01847014 -1.657011 12.85705392 -2 17 C-5 15 -5 15 -5.87109375 12.70703125 C-6.03936896 9.17325177 -4.98085857 7.62376312 -3.0625 4.6875 C-2.21365234 3.36298828 -2.21365234 3.36298828 -1.34765625 2.01171875 C-0.90292969 1.34785156 -0.45820313 0.68398437 0 0 Z " fill="#8CA755" transform="translate(310,146)"/>
<path d="M0 0 C-0.33 0.99 -0.66 1.98 -1 3 C-4.47325181 4.1577506 -7.36067448 4.06866652 -11 4 C-10.3125 2.0625 -10.3125 2.0625 -9 0 C-5.6813976 -1.13531135 -3.31010574 -1.10336858 0 0 Z " fill="#7D9E3B" transform="translate(198,102)"/>
<path d="M0 0 C-0.66 0 -1.32 0 -2 0 C-2.33 1.32 -2.66 2.64 -3 4 C-5.31 4.33 -7.62 4.66 -10 5 C-10 4.34 -10 3.68 -10 3 C-10.66 2.67 -11.32 2.34 -12 2 C-10.56656 1.46809459 -9.12804633 0.94984742 -7.6875 0.4375 C-6.48673828 0.00244141 -6.48673828 0.00244141 -5.26171875 -0.44140625 C-3 -1 -3 -1 0 0 Z " fill="#7B9D39" transform="translate(215,177)"/>
<path d="M0 0 C2.31 0.66 4.62 1.32 7 2 C5.25 5.875 5.25 5.875 3 7 C0.98072489 6.39421747 -1.02253397 5.73080266 -3 5 C-2.01 4.34 -1.02 3.68 0 3 C0 2.01 0 1.02 0 0 Z " fill="#93AD5E" transform="translate(131,220)"/>
<path d="M0 0 C0.33 0.99 0.66 1.98 1 3 C0.00390625 4.82421875 0.00390625 4.82421875 -1.4375 6.6875 C-1.91058594 7.31011719 -2.38367188 7.93273437 -2.87109375 8.57421875 C-3.24363281 9.04472656 -3.61617188 9.51523438 -4 10 C-5.32 9.67 -6.64 9.34 -8 9 C-6.90101298 5.70303895 -6.05402613 4.95329411 -3.4375 2.8125 C-2.79683594 2.28269531 -2.15617187 1.75289062 -1.49609375 1.20703125 C-0.75552734 0.60955078 -0.75552734 0.60955078 0 0 Z " fill="#81A141" transform="translate(292,178)"/>
<path d="M0 0 C-0.33 0.99 -0.66 1.98 -1 3 C-7.435 3.495 -7.435 3.495 -14 4 C-14 3.34 -14 2.68 -14 2 C-9.15758367 0.66416101 -5.06562383 -0.25328119 0 0 Z " fill="#799E36" transform="translate(150,163)"/>
<path d="M0 0 C-3.465 1.485 -3.465 1.485 -7 3 C-7 3.66 -7 4.32 -7 5 C-5.68 5.33 -4.36 5.66 -3 6 C-6.3 5.67 -9.6 5.34 -13 5 C-13 4.01 -13 3.02 -13 2 C-11.5882217 1.46605821 -10.17029756 0.94834896 -8.75 0.4375 C-7.96109375 0.14746094 -7.1721875 -0.14257812 -6.359375 -0.44140625 C-3.80896548 -1.04522837 -2.44677771 -0.8473932 0 0 Z " fill="#91AC5E" transform="translate(212,177)"/>
<path d="M0 0 C4.62 0 9.24 0 14 0 C14 0.33 14 0.66 14 1 C8.06 1.495 8.06 1.495 2 2 C2 3.65 2 5.3 2 7 C1.34 6.34 0.68 5.68 0 5 C0 3.35 0 1.7 0 0 Z " fill="#8EA959" transform="translate(48,130)"/>
<path d="M0 0 C2.64 0.66 5.28 1.32 8 2 C6.68 2.33 5.36 2.66 4 3 C4.33 3.99 4.66 4.98 5 6 C1.31245243 5.50168276 -0.60490662 4.89932357 -3 2 C-2.34 2 -1.68 2 -1 2 C-0.67 1.34 -0.34 0.68 0 0 Z " fill="#9AB36A" transform="translate(83,193)"/>
<path d="M0 0 C2.31 0 4.62 0 7 0 C7.33 0.99 7.66 1.98 8 3 C1.375 4 1.375 4 -2 4 C-1.34 2.68 -0.68 1.36 0 0 Z " fill="#7D9F3C" transform="translate(187,211)"/>
<path d="M0 0 C-0.33 0.66 -0.66 1.32 -1 2 C-0.34 2.66 0.32 3.32 1 4 C-0.98 4.33 -2.96 4.66 -5 5 C-5 4.01 -5 3.02 -5 2 C-6.32 1.67 -7.64 1.34 -9 1 C-2.25 -1.125 -2.25 -1.125 0 0 Z " fill="#90AC5B" transform="translate(189,103)"/>
<path d="M0 0 C3.3 0.33 6.6 0.66 10 1 C9.01 1.495 9.01 1.495 8 2 C8 2.66 8 3.32 8 4 C5.69 3.67 3.38 3.34 1 3 C0.67 2.01 0.34 1.02 0 0 Z " fill="#7C9D38" transform="translate(114,217)"/>
<path d="M0 0 C0.66 0.33 1.32 0.66 2 1 C2 1.99 2 2.98 2 4 C2.66 4.33 3.32 4.66 4 5 C1.29120665 6.35439668 -1.00933268 6.06501451 -4 6 C-4 5.01 -4 4.02 -4 3 C-2.68 2.67 -1.36 2.34 0 2 C0 1.34 0 0.68 0 0 Z " fill="#8AA750" transform="translate(235,197)"/>
<path d="M0 0 C0 0.99 0 1.98 0 3 C-3.375 3.125 -3.375 3.125 -7 3 C-7.66 2.34 -8.32 1.68 -9 1 C-5.57367167 -0.61798838 -3.61944899 -1.34053666 0 0 Z " fill="#7B9D37" transform="translate(199,153)"/>
<path d="M0 0 C0.66 0.66 1.32 1.32 2 2 C-6.03571429 4.27678571 -6.03571429 4.27678571 -10 3 C-9.01 2.67 -8.02 2.34 -7 2 C-7.66 1.34 -8.32 0.68 -9 0 C-5.64961743 -0.83759564 -3.2704774 -1.24052591 0 0 Z " fill="#99B169" transform="translate(138,117)"/>
<path d="M0 0 C0 0.99 0 1.98 0 3 C-4.00200378 4.60080151 -7.04556236 3.29279692 -11 2 C-7.36576791 -0.32590854 -4.22911669 -0.16265833 0 0 Z " fill="#82A145" transform="translate(184,105)"/>
<path d="M0 0 C-0.66 0.66 -1.32 1.32 -2 2 C-2 2.99 -2 3.98 -2 5 C-2.99 5 -3.98 5 -5 5 C-5.33 4.34 -5.66 3.68 -6 3 C-8.31 3 -10.62 3 -13 3 C-10.37358828 1.24905885 -8.89308789 0.54725362 -5.9375 -0.1875 C-5.24527344 -0.36667969 -4.55304688 -0.54585938 -3.83984375 -0.73046875 C-2 -1 -2 -1 0 0 Z " fill="#8EA858" transform="translate(203,99)"/>
<path d="M0 0 C2.64 0.66 5.28 1.32 8 2 C8 2.33 8 2.66 8 3 C6.35 3.33 4.7 3.66 3 4 C3 4.66 3 5.32 3 6 C0.5625 5.625 0.5625 5.625 -2 5 C-2.33 4.34 -2.66 3.68 -3 3 C-2.01 3 -1.02 3 0 3 C0 2.01 0 1.02 0 0 Z " fill="#8EA958" transform="translate(112,214)"/>
<path d="M0 0 C1.32 0.33 2.64 0.66 4 1 C4 1.99 4 2.98 4 4 C2.02 4.66 0.04 5.32 -2 6 C-2.33 5.01 -2.66 4.02 -3 3 C-2.01 2.67 -1.02 2.34 0 2 C0 1.34 0 0.68 0 0 Z " fill="#7FA03E" transform="translate(247,163)"/>
<path d="M0 0 C-0.66 0 -1.32 0 -2 0 C-2 0.66 -2 1.32 -2 2 C-0.35 2 1.3 2 3 2 C3 2.33 3 2.66 3 3 C0.69 3.33 -1.62 3.66 -4 4 C-4 3.01 -4 2.02 -4 1 C-6.31 1.33 -8.62 1.66 -11 2 C-6.98764085 -0.6749061 -4.6342454 -1.48957888 0 0 Z " fill="#A0B770" transform="translate(157,112)"/>
<path d="M0 0 C2.375 -0.125 2.375 -0.125 5 0 C7 2 7 2 7 5 C4.0625 4.1875 4.0625 4.1875 1 3 C0.67 2.01 0.34 1.02 0 0 Z " fill="#80A042" transform="translate(87,196)"/>
<path d="M0 0 C0 0.99 0 1.98 0 3 C0.66 3.33 1.32 3.66 2 4 C0.02 4.33 -1.96 4.66 -4 5 C-4 4.01 -4 3.02 -4 2 C-4.66 1.34 -5.32 0.68 -6 0 C-3 -1 -3 -1 0 0 Z " fill="#88A54E" transform="translate(218,146)"/>
<path d="M0 0 C-0.33 0.66 -0.66 1.32 -1 2 C-1.66 2 -2.32 2 -3 2 C-3.33 2.99 -3.66 3.98 -4 5 C-4.99 4.67 -5.98 4.34 -7 4 C-7 2.68 -7 1.36 -7 0 C-3.86650268 -1.04449911 -3.01031744 -0.93423645 0 0 Z " fill="#B3C064" transform="translate(117,93)"/>
<path d="M0 0 C-1.875 3.875 -1.875 3.875 -3 5 C-4.66617115 5.04063832 -6.33388095 5.042721 -8 5 C-8.33 4.34 -8.66 3.68 -9 3 C-3.375 0 -3.375 0 0 0 Z " fill="#7C9E38" transform="translate(232,89)"/>
<path d="M0 0 C2.97 0 5.94 0 9 0 C8.67 1.32 8.34 2.64 8 4 C6.35 4 4.7 4 3 4 C3 3.34 3 2.68 3 2 C2.01 1.34 1.02 0.68 0 0 Z " fill="#819F41" transform="translate(158,188)"/>
<path d="M0 0 C-3.21182149 1.90608098 -5.53882603 2.22266247 -9.25 2.125 C-10.14203125 2.10695313 -11.0340625 2.08890625 -11.953125 2.0703125 C-12.96632813 2.03550781 -12.96632813 2.03550781 -14 2 C-9.1289726 -1.2473516 -5.65616983 -1.1838495 0 0 Z " fill="#9AB166" transform="translate(107,124)"/>
<path d="M0 0 C0.33 0.66 0.66 1.32 1 2 C-1.95664519 3.4783226 -4.74229737 3.06032783 -8 3 C-8 2.34 -8 1.68 -8 1 C-5.29120665 -0.35439668 -2.99066732 -0.06501451 0 0 Z " fill="#7B9D3A" transform="translate(163,111)"/>
<path d="M0 0 C0 0.66 0 1.32 0 2 C-1.98 2.33 -3.96 2.66 -6 3 C-6 2.34 -6 1.68 -6 1 C-7.32 0.67 -8.64 0.34 -10 0 C-6.30581799 -1.231394 -3.7943739 -0.64432764 0 0 Z " fill="#8DA857" transform="translate(255,83)"/>
<path d="M0 0 C1.32 0.66 2.64 1.32 4 2 C3.67 2.99 3.34 3.98 3 5 C0.69 4.67 -1.62 4.34 -4 4 C-2.68 2.68 -1.36 1.36 0 0 Z " fill="#84A346" transform="translate(128,219)"/>
<path d="M0 0 C2.6875 0.875 2.6875 0.875 5 2 C3.68 3.32 2.36 4.64 1 6 C-0.32 4.68 -1.64 3.36 -3 2 C-2.01 1.34 -1.02 0.68 0 0 Z " fill="#8AA752" transform="translate(99,203)"/>
<path d="M0 0 C0.66 0.33 1.32 0.66 2 1 C-1.63 3.31 -5.26 5.62 -9 8 C-9.66 7.34 -10.32 6.68 -11 6 C-9.21385682 4.96953278 -7.42089982 3.95086764 -5.625 2.9375 C-4.62726563 2.36902344 -3.62953125 1.80054688 -2.6015625 1.21484375 C-1.74304688 0.81394531 -0.88453125 0.41304687 0 0 Z " fill="#A7B77F" transform="translate(286,173)"/>
<path d="M0 0 C0 0.66 0 1.32 0 2 C-3.21451269 3.60725635 -6.43612536 3.05748185 -10 3 C-6.68152292 -0.06320961 -4.44849969 -0.3033068 0 0 Z " fill="#7E9E3C" transform="translate(146,115)"/>
<path d="M0 0 C3.63 0 7.26 0 11 0 C11.33 0.99 11.66 1.98 12 3 C10.02 3.99 10.02 3.99 8 5 C8 3.68 8 2.36 8 1 C5.36 1 2.72 1 0 1 C0 0.67 0 0.34 0 0 Z " fill="#BCC779" transform="translate(292,49)"/>
<path d="M0 0 C0.33 0.99 0.66 1.98 1 3 C-0.32 4.32 -1.64 5.64 -3 7 C-3.66 5.68 -4.32 4.36 -5 3 C-3.35 2.01 -1.7 1.02 0 0 Z " fill="#84A246" transform="translate(297,171)"/>
<path d="M0 0 C-2.97 1.32 -5.94 2.64 -9 4 C-9.66 3.34 -10.32 2.68 -11 2 C-4.5 -1.125 -4.5 -1.125 0 0 Z " fill="#A0B674" transform="translate(305,62)"/>
<path d="M0 0 C0.33 0.99 0.66 1.98 1 3 C-2.375 3.125 -2.375 3.125 -6 3 C-6.66 2.34 -7.32 1.68 -8 1 C-5.07175348 0.02391783 -3.04386724 -0.08226668 0 0 Z " fill="#7B9E34" transform="translate(156,228)"/>
<path d="M0 0 C0.66 0.33 1.32 0.66 2 1 C1.67 2.32 1.34 3.64 1 5 C-0.98 5.33 -2.96 5.66 -5 6 C-4.34 5.67 -3.68 5.34 -3 5 C-2.30062468 3.68352881 -1.63270867 2.34977849 -1 1 C-0.67 0.67 -0.34 0.34 0 0 Z " fill="#8EAA53" transform="translate(228,201)"/>
<path d="M0 0 C0.82638376 2.89234315 1 4.88742431 1 8 C0.01 8.495 0.01 8.495 -1 9 C-1.33 9.99 -1.66 10.98 -2 12 C-2.66 12 -3.32 12 -4 12 C-2.66666667 8 -1.33333333 4 0 0 Z " fill="#E4EBD4" transform="translate(313,141)"/>
<path d="M0 0 C0 0.66 0 1.32 0 2 C-0.66 2 -1.32 2 -2 2 C-2 2.99 -2 3.98 -2 5 C-4.31 5.33 -6.62 5.66 -9 6 C-3.2 0 -3.2 0 0 0 Z " fill="#F1F6EC" transform="translate(309,105)"/>
<path d="M0 0 C0 3.90838866 -1.50567876 5.11594107 -4 8 C-4.99 7.67 -5.98 7.34 -7 7 C-4.69 4.69 -2.38 2.38 0 0 Z " fill="#90A95D" transform="translate(284,184)"/>
<path d="M0 0 C1.98 0 3.96 0 6 0 C5.67 0.99 5.34 1.98 5 3 C2.69 3 0.38 3 -2 3 C-1.34 2.67 -0.68 2.34 0 2 C0 1.34 0 0.68 0 0 Z " fill="#7A9D35" transform="translate(174,214)"/>
<path d="M0 0 C1.9375 0.6875 1.9375 0.6875 2.9375 2.6875 C0.6275 3.0175 -1.6825 3.3475 -4.0625 3.6875 C-4.0625 2.6975 -4.0625 1.7075 -4.0625 0.6875 C-2.0625 -0.3125 -2.0625 -0.3125 0 0 Z " fill="#7A9E33" transform="translate(189.0625,183.3125)"/>
<path d="M0 0 C-1.25 1.5625 -1.25 1.5625 -3 3 C-5.1875 2.6875 -5.1875 2.6875 -7 2 C-7 1.34 -7 0.68 -7 0 C-4.3333581 -1.33332095 -2.83319697 -0.67102033 0 0 Z " fill="#7B9E36" transform="translate(238,141)"/>
<path d="M0 0 C0.99 0 1.98 0 3 0 C3 0.66 3 1.32 3 2 C2.34 2 1.68 2 1 2 C1 2.99 1 3.98 1 5 C-0.32 5 -1.64 5 -3 5 C-1.125 1.125 -1.125 1.125 0 0 Z " fill="#7A9D38" transform="translate(257,208)"/>
<path d="M0 0 C-0.66 0.66 -1.32 1.32 -2 2 C-2.99 2 -3.98 2 -5 2 C-5.99 2.33 -6.98 2.66 -8 3 C-8.33 2.34 -8.66 1.68 -9 1 C-5.57367167 -0.61798838 -3.61944899 -1.34053666 0 0 Z " fill="#799E35" transform="translate(216,148)"/>
<path d="M0 0 C-0.33 1.32 -0.66 2.64 -1 4 C-2.65 3.67 -4.3 3.34 -6 3 C-6 2.34 -6 1.68 -6 1 C-3 0 -3 0 0 0 Z " fill="#809F3F" transform="translate(258,80)"/>
</svg>
